<svg data-v-fde0c5aa="" xmlns="http://www.w3.org/2000/svg" viewBox="0 0 300 300" class="iconAbove"><!----><defs data-v-fde0c5aa=""><!----></defs><rect data-v-fde0c5aa="" fill="#EDED1B" x="0" y="0" width="300px" height="300px" class="logo-background-square"></rect><defs data-v-fde0c5aa=""><!----></defs><g data-v-fde0c5aa="" id="7c706a53-4ab0-45a7-9f8f-0ea9fc4b0fd2" fill="#131619" transform="matrix(1.9625602237218405,0,0,1.9625602237218405,17.036534080896452,158.9509376788859)"><path d="M10.65 9.41L10.65 9.41Q10.65 9.60 10.25 12.04L10.25 12.04L10.25 12.04Q9.84 14.60 9.65 15.85L9.65 15.85L9.65 15.85Q9.46 17.09 9.46 17.60L9.46 17.60L9.46 17.60Q9.46 18.41 9.80 18.83L9.80 18.83L9.80 18.83Q9.25 19.19 8.72 19.19L8.72 19.19L8.72 19.19Q8.20 19.19 7.97 18.93L7.97 18.93L7.97 18.93Q7.73 18.66 7.73 18.06L7.73 18.06L7.73 18.06Q7.73 17.04 8.08 14.76L8.08 14.76L3.60 14.76L3.60 14.76Q3.25 17.02 3.25 17.60L3.25 17.60L3.25 17.60Q3.25 18.41 3.58 18.83L3.58 18.83L3.58 18.83Q3.04 19.19 2.51 19.19L2.51 19.19L2.51 19.19Q1.99 19.19 1.75 18.93L1.75 18.93L1.75 18.93Q1.51 18.66 1.51 18.06L1.51 18.06L1.51 18.06Q1.51 17.25 1.74 15.60L1.74 15.60L1.74 15.60Q1.96 13.94 2.59 10.11L2.59 10.11L2.16 9.25L2.16 9.25Q3.09 8.67 3.82 8.67L3.82 8.67L3.82 8.67Q4.44 8.67 4.44 9.41L4.44 9.41L4.44 9.41Q4.44 9.55 4.29 10.47L4.29 10.47L4.29 10.47Q4.14 11.40 4.07 11.79L4.07 11.79L3.75 13.76L8.22 13.76L8.22 13.76Q8.48 12.05 8.82 10.11L8.82 10.11L8.37 9.25L8.37 9.25Q9.31 8.67 10.04 8.67L10.04 8.67L10.04 8.67Q10.65 8.67 10.65 9.41L10.65 9.41ZM19.67 18.06L19.67 18.06Q19.67 18.55 19.92 18.79L19.92 18.79L19.92 18.79Q19.49 19.18 18.98 19.18L18.98 19.18L18.98 19.18Q18.51 19.18 18.26 18.89L18.26 18.89L18.26 18.89Q18.00 18.59 18.00 18.03L18.00 18.03L18.00 18.03Q18.00 17.72 18.10 17.19L18.10 17.19L17.96 17.12L17.96 17.12Q17.46 18.10 16.70 18.64L16.70 18.64L16.70 18.64Q15.93 19.18 15.04 19.18L15.04 19.18L15.04 19.18Q14.28 19.18 13.70 18.77L13.70 18.77L13.70 18.77Q13.12 18.37 12.80 17.62L12.80 17.62L12.80 17.62Q12.49 16.87 12.49 15.89L12.49 15.89L12.49 15.89Q12.49 14.38 13.20 13.13L13.20 13.13L13.20 13.13Q13.92 11.87 15.15 11.15L15.15 11.15L15.15 11.15Q16.38 10.43 17.86 10.43L17.86 10.43L17.86 10.43Q18.51 10.43 19.18 10.54L19.18 10.54L19.18 10.54Q19.28 10.71 19.33 10.99L19.33 10.99L19.33 10.99Q19.63 10.78 20.01 10.78L20.01 10.78L20.01 10.78Q20.36 10.78 20.56 10.95L20.56 10.95L20.56 10.95Q20.76 11.12 20.76 11.41L20.76 11.41L20.76 11.41Q20.76 11.73 20.67 12.18L20.67 12.18L20.67 12.18Q20.58 12.63 20.37 13.50L20.37 13.50L20.37 13.50Q20.03 14.91 19.85 15.95L19.85 15.95L19.85 15.95Q19.67 16.98 19.67 18.06L19.67 18.06ZM15.71 17.86L15.71 17.86Q17.01 17.86 17.85 16.21L17.85 16.21L17.85 16.21Q18.69 14.55 19.11 11.20L19.11 11.20L19.11 11.20Q17.60 11.24 16.48 11.87L16.48 11.87L16.48 11.87Q15.37 12.49 14.79 13.52L14.79 13.52L14.79 13.52Q14.21 14.56 14.21 15.85L14.21 15.85L14.21 15.85Q14.21 16.80 14.60 17.33L14.60 17.33L14.60 17.33Q14.99 17.86 15.71 17.86L15.71 17.86ZM29.06 10.43L29.06 10.43Q29.82 10.43 30.40 10.84L30.40 10.84L30.40 10.84Q30.98 11.24 31.30 11.99L31.30 11.99L31.30 11.99Q31.61 12.74 31.61 13.72L31.61 13.72L31.61 13.72Q31.61 15.13 30.91 16.30L30.91 16.30L30.91 16.30Q30.20 17.47 28.97 18.15L28.97 18.15L28.97 18.15Q27.73 18.83 26.25 18.83L26.25 18.83L26.25 18.83Q25.58 18.83 24.95 18.72L24.95 18.72L24.95 18.72Q24.88 19.66 24.88 20.40L24.88 20.40L24.88 20.40Q24.88 20.66 24.96 20.90L24.96 20.90L24.96 20.90Q25.05 21.13 25.17 21.24L25.17 21.24L25.17 21.24Q24.74 21.63 24.12 21.63L24.12 21.63L24.12 21.63Q23.24 21.63 23.24 20.47L23.24 20.47L23.24 20.47Q23.24 19.92 23.63 17.37L23.63 17.37L23.63 17.37Q24.01 14.81 24.57 11.73L24.57 11.73L23.95 11.03L23.95 11.03Q24.29 10.77 24.74 10.60L24.74 10.60L24.74 10.60Q25.19 10.43 25.56 10.43L25.56 10.43L25.56 10.43Q25.96 10.43 26.12 10.61L26.12 10.61L26.12 10.61Q26.29 10.78 26.29 11.20L26.29 11.20L26.29 11.20Q26.29 11.55 26.05 12.64L26.05 12.64L26.15 12.71L26.15 12.71Q26.64 11.62 27.41 11.03L27.41 11.03L27.41 11.03Q28.18 10.43 29.06 10.43L29.06 10.43ZM25.02 18.06L25.02 18.06Q26.49 18.02 27.59 17.47L27.59 17.47L27.59 17.47Q28.70 16.91 29.30 15.96L29.30 15.96L29.30 15.96Q29.90 15.01 29.90 13.76L29.90 13.76L29.90 13.76Q29.90 12.81 29.51 12.28L29.51 12.28L29.51 12.28Q29.11 11.75 28.39 11.75L28.39 11.75L28.39 11.75Q26.29 11.75 25.09 17.50L25.09 17.50L25.02 18.06ZM39.83 10.43L39.83 10.43Q40.59 10.43 41.17 10.84L41.17 10.84L41.17 10.84Q41.75 11.24 42.06 11.99L42.06 11.99L42.06 11.99Q42.38 12.74 42.38 13.72L42.38 13.72L42.38 13.72Q42.38 15.13 41.67 16.30L41.67 16.30L41.67 16.30Q40.96 17.47 39.73 18.15L39.73 18.15L39.73 18.15Q38.50 18.83 37.02 18.83L37.02 18.83L37.02 18.83Q36.34 18.83 35.71 18.72L35.71 18.72L35.71 18.72Q35.64 19.66 35.64 20.40L35.64 20.40L35.64 20.40Q35.64 20.66 35.73 20.90L35.73 20.90L35.73 20.90Q35.81 21.13 35.94 21.24L35.94 21.24L35.94 21.24Q35.50 21.63 34.89 21.63L34.89 21.63L34.89 21.63Q34.01 21.63 34.01 20.47L34.01 20.47L34.01 20.47Q34.01 19.92 34.39 17.37L34.39 17.37L34.39 17.37Q34.78 14.81 35.34 11.73L35.34 11.73L34.72 11.03L34.72 11.03Q35.06 10.77 35.50 10.60L35.50 10.60L35.50 10.60Q35.95 10.43 36.33 10.43L36.33 10.43L36.33 10.43Q36.72 10.43 36.89 10.61L36.89 10.61L36.89 10.61Q37.06 10.78 37.06 11.20L37.06 11.20L37.06 11.20Q37.06 11.55 36.82 12.64L36.82 12.64L36.92 12.71L36.92 12.71Q37.41 11.62 38.18 11.03L38.18 11.03L38.18 11.03Q38.95 10.43 39.83 10.43L39.83 10.43ZM35.78 18.06L35.78 18.06Q37.25 18.02 38.36 17.47L38.36 17.47L38.36 17.47Q39.47 16.91 40.07 15.96L40.07 15.96L40.07 15.96Q40.67 15.01 40.67 13.76L40.67 13.76L40.67 13.76Q40.67 12.81 40.27 12.28L40.27 12.28L40.27 12.28Q39.87 11.75 39.16 11.75L39.16 11.75L39.16 11.75Q37.06 11.75 35.85 17.50L35.85 17.50L35.78 18.06ZM51.66 10.43L51.66 10.43Q52.37 10.43 52.37 11.27L52.37 11.27L52.37 11.27Q52.37 13.54 51.37 15.96L51.37 15.96L51.37 15.96Q50.36 18.38 48.53 20.01L48.53 20.01L48.53 20.01Q46.70 21.63 44.37 21.63L44.37 21.63L44.37 21.63Q43.48 21.63 43.05 21.32L43.05 21.32L43.05 21.32Q42.62 21.01 42.62 20.48L42.62 20.48L42.62 20.48Q42.62 20.29 42.70 20.07L42.70 20.07L42.70 20.07Q42.78 19.85 42.90 19.68L42.90 19.68L42.90 19.68Q43.19 20.02 43.58 20.23L43.58 20.23L43.58 20.23Q43.97 20.44 44.69 20.44L44.69 20.44L44.69 20.44Q45.32 20.44 46.12 20.13L46.12 20.13L46.12 20.13Q46.93 19.81 47.70 19.17L47.70 19.17L47.70 19.17Q46.68 19.08 46.18 18.44L46.18 18.44L46.18 18.44Q45.68 17.79 45.56 16.92L45.56 16.92L45.56 16.92Q45.43 16.04 45.39 14.60L45.39 14.60L45.39 14.60Q45.36 13.54 45.30 12.91L45.30 12.91L45.30 12.91Q45.25 12.28 45.07 11.70L45.07 11.70L45.07 11.70Q44.88 11.13 44.49 10.78L44.49 10.78L44.49 10.78Q44.94 10.43 45.46 10.43L45.46 10.43L45.46 10.43Q46.20 10.43 46.54 10.96L46.54 10.96L46.54 10.96Q46.89 11.48 46.96 12.24L46.96 12.24L46.96 12.24Q47.04 13.01 47.04 14.32L47.04 14.32L47.04 14.32Q47.05 15.60 47.12 16.35L47.12 16.35L47.12 16.35Q47.19 17.11 47.49 17.71L47.49 17.71L47.49 17.71Q47.78 18.31 48.41 18.48L48.41 18.48L48.41 18.48Q49.46 17.36 50.08 15.63L50.08 15.63L50.08 15.63Q50.71 13.90 50.71 11.55L50.71 11.55L50.71 11.55Q50.71 10.98 50.68 10.78L50.68 10.78L50.68 10.78Q51.00 10.58 51.21 10.51L51.21 10.51L51.21 10.51Q51.42 10.43 51.66 10.43L51.66 10.43ZM61.78 19.18L61.78 19.18Q60.20 19.18 59.24 18.71L59.24 18.71L59.24 18.71Q58.28 18.24 58.28 17.40L58.28 17.40L58.28 17.40Q58.28 17.09 58.44 16.82L58.44 16.82L58.44 16.82Q58.60 16.55 58.88 16.38L58.88 16.38L58.88 16.38Q59.32 17.23 60.07 17.69L60.07 17.69L60.07 17.69Q60.82 18.14 61.70 18.14L61.70 18.14L61.70 18.14Q62.90 18.14 63.63 17.72L63.63 17.72L63.63 17.72Q64.36 17.30 64.36 16.52L64.36 16.52L64.36 16.52Q64.36 16.13 64.07 15.83L64.07 15.83L64.07 15.83Q63.78 15.54 63.34 15.34L63.34 15.34L63.34 15.34Q62.90 15.13 62.15 14.85L62.15 14.85L62.15 14.85Q61.11 14.48 60.47 14.14L60.47 14.14L60.47 14.14Q59.84 13.80 59.37 13.24L59.37 13.24L59.37 13.24Q58.91 12.67 58.91 11.83L58.91 11.83L58.91 11.83Q58.91 10.92 59.53 10.20L59.53 10.20L59.53 10.20Q60.16 9.48 61.28 9.07L61.28 9.07L61.28 9.07Q62.41 8.67 63.88 8.67L63.88 8.67L63.88 8.67Q64.74 8.67 65.41 8.84L65.41 8.84L65.41 8.84Q66.09 9.02 66.48 9.32L66.48 9.32L66.48 9.32Q66.86 9.63 66.86 10.04L66.86 10.04L66.86 10.04Q66.86 10.63 66.48 10.94L66.48 10.94L66.48 10.94Q66.09 11.26 65.46 11.26L65.46 11.26L65.46 11.26Q64.19 11.26 63.73 9.74L63.73 9.74L63.73 9.74Q62.31 9.91 61.52 10.42L61.52 10.42L61.52 10.42Q60.72 10.93 60.72 11.63L60.72 11.63L60.72 11.63Q60.72 12.00 61.00 12.27L61.00 12.27L61.00 12.27Q61.28 12.54 61.70 12.73L61.70 12.73L61.70 12.73Q62.12 12.92 62.89 13.22L62.89 13.22L62.89 13.22Q63.91 13.58 64.57 13.92L64.57 13.92L64.57 13.92Q65.23 14.25 65.69 14.81L65.69 14.81L65.69 14.81Q66.16 15.37 66.16 16.20L66.16 16.20L66.16 16.20Q66.16 17.01 65.65 17.69L65.65 17.69L65.65 17.69Q65.14 18.37 64.16 18.77L64.16 18.77L64.16 18.77Q63.17 19.18 61.78 19.18L61.78 19.18ZM69.43 19.18L69.43 19.18Q68.46 19.18 68.46 18.19L68.46 18.19L68.46 18.19Q68.46 17.70 68.70 16.35L68.70 16.35L68.70 16.35Q68.94 14.99 69.50 12.10L69.50 12.10L69.50 12.10Q70.04 9.28 70.04 9.28L70.04 9.28L69.43 8.58L69.43 8.58Q69.75 8.30 70.20 8.14L70.20 8.14L70.20 8.14Q70.66 7.98 71.04 7.98L71.04 7.98L71.04 7.98Q71.43 7.98 71.60 8.16L71.60 8.16L71.60 8.16Q71.76 8.33 71.76 8.75L71.76 8.75L71.76 8.75Q71.76 9.02 71.68 9.44L71.68 9.44L71.68 9.44Q71.60 9.87 71.40 10.65L71.40 10.65L71.40 10.65Q71.02 12.18 70.85 13.02L70.85 13.02L70.99 13.09L70.99 13.09Q71.76 11.70 72.77 11.07L72.77 11.07L72.77 11.07Q73.78 10.43 74.80 10.43L74.80 10.43L74.80 10.43Q75.70 10.43 76.15 10.89L76.15 10.89L76.15 10.89Q76.59 11.34 76.59 12.29L76.59 12.29L76.59 12.29Q76.59 12.85 76.47 13.45L76.47 13.45L76.47 13.45Q76.36 14.06 76.13 14.97L76.13 14.97L76.13 14.97Q75.87 16.03 75.74 16.71L75.74 16.71L75.74 16.71Q75.61 17.39 75.61 18.06L75.61 18.06L75.61 18.06Q75.61 18.59 75.80 18.79L75.80 18.79L75.80 18.79Q75.36 19.18 74.90 19.18L74.90 19.18L74.90 19.18Q74.41 19.18 74.19 18.93L74.19 18.93L74.19 18.93Q73.96 18.68 73.96 18.19L73.96 18.19L73.96 18.19Q73.96 17.65 74.08 16.99L74.08 16.99L74.08 16.99Q74.20 16.32 74.42 15.26L74.42 15.26L74.42 15.26Q74.63 14.38 74.74 13.78L74.74 13.78L74.74 13.78Q74.84 13.19 74.84 12.75L74.84 12.75L74.84 12.75Q74.84 11.62 73.99 11.62L73.99 11.62L73.99 11.62Q73.14 11.62 72.23 12.46L72.23 12.46L72.23 12.46Q71.33 13.30 70.73 14.78L70.73 14.78L70.73 14.78Q70.13 16.25 70.13 18.06L70.13 18.06L70.13 18.06Q70.13 18.58 70.29 18.79L70.29 18.79L70.29 18.79Q69.89 19.18 69.43 19.18L69.43 19.18ZM82.12 19.18L82.12 19.18Q81.12 19.18 80.35 18.73L80.35 18.73L80.35 18.73Q79.59 18.27 79.18 17.44L79.18 17.44L79.18 17.44Q78.76 16.60 78.76 15.50L78.76 15.50L78.76 15.50Q78.76 14.01 79.39 12.87L79.39 12.87L79.39 12.87Q80.01 11.72 81.13 11.07L81.13 11.07L81.13 11.07Q82.25 10.43 83.66 10.43L83.66 10.43L83.66 10.43Q84.25 10.43 84.74 10.54L84.74 10.54L84.74 10.54Q84.90 10.77 84.92 11.20L84.92 11.20L84.92 11.20Q83.52 11.20 82.53 11.76L82.53 11.76L82.53 11.76Q81.54 12.32 81.02 13.32L81.02 13.32L81.02 13.32Q80.50 14.32 80.50 15.60L80.50 15.60L80.50 15.60Q80.50 16.84 80.96 17.54L80.96 17.54L80.96 17.54Q81.42 18.24 82.28 18.24L82.28 18.24L82.28 18.24Q83.10 18.24 83.77 17.78L83.77 17.78L83.77 17.78Q84.43 17.32 84.86 16.46L84.86 16.46L84.86 16.46Q85.29 15.61 85.40 14.48L85.40 14.48L85.40 14.48Q84.83 14.11 84.57 13.68L84.57 13.68L84.57 13.68Q84.31 13.24 84.31 12.66L84.31 12.66L84.31 12.66Q84.31 12.12 84.63 11.77L84.63 11.77L84.63 11.77Q84.95 11.41 85.43 11.41L85.43 11.41L85.43 11.41Q86.07 11.41 86.44 11.98L86.44 11.98L86.44 11.98Q86.80 12.56 86.80 13.58L86.80 13.58L86.80 13.58Q86.80 15.12 86.18 16.40L86.18 16.40L86.18 16.40Q85.55 17.68 84.48 18.43L84.48 18.43L84.48 18.43Q83.41 19.18 82.12 19.18L82.12 19.18ZM94.95 10.43L94.95 10.43Q95.70 10.43 96.28 10.84L96.28 10.84L96.28 10.84Q96.87 11.24 97.18 11.99L97.18 11.99L97.18 11.99Q97.50 12.74 97.50 13.72L97.50 13.72L97.50 13.72Q97.50 15.13 96.79 16.30L96.79 16.30L96.79 16.30Q96.08 17.47 94.85 18.15L94.85 18.15L94.85 18.15Q93.62 18.83 92.13 18.83L92.13 18.83L92.13 18.83Q91.46 18.83 90.83 18.72L90.83 18.72L90.83 18.72Q90.76 19.66 90.76 20.40L90.76 20.40L90.76 20.40Q90.76 20.66 90.85 20.90L90.85 20.90L90.85 20.90Q90.93 21.13 91.06 21.24L91.06 21.24L91.06 21.24Q90.62 21.63 90.01 21.63L90.01 21.63L90.01 21.63Q89.12 21.63 89.12 20.47L89.12 20.47L89.12 20.47Q89.12 19.92 89.51 17.37L89.51 17.37L89.51 17.37Q89.89 14.81 90.45 11.73L90.45 11.73L89.84 11.03L89.84 11.03Q90.17 10.77 90.62 10.60L90.62 10.60L90.62 10.60Q91.07 10.43 91.45 10.43L91.45 10.43L91.45 10.43Q91.84 10.43 92.01 10.61L92.01 10.61L92.01 10.61Q92.18 10.78 92.18 11.20L92.18 11.20L92.18 11.20Q92.18 11.55 91.94 12.64L91.94 12.64L92.04 12.71L92.04 12.71Q92.53 11.62 93.30 11.03L93.30 11.03L93.30 11.03Q94.07 10.43 94.95 10.43L94.95 10.43ZM90.90 18.06L90.90 18.06Q92.37 18.02 93.48 17.47L93.48 17.47L93.48 17.47Q94.58 16.91 95.19 15.96L95.19 15.96L95.19 15.96Q95.79 15.01 95.79 13.76L95.79 13.76L95.79 13.76Q95.79 12.81 95.39 12.28L95.39 12.28L95.39 12.28Q94.99 11.75 94.28 11.75L94.28 11.75L94.28 11.75Q92.18 11.75 90.97 17.50L90.97 17.50L90.90 18.06ZM105.71 10.43L105.71 10.43Q106.47 10.43 107.05 10.84L107.05 10.84L107.05 10.84Q107.63 11.24 107.95 11.99L107.95 11.99L107.95 11.99Q108.26 12.74 108.26 13.72L108.26 13.72L108.26 13.72Q108.26 15.13 107.56 16.30L107.56 16.30L107.56 16.30Q106.85 17.47 105.62 18.15L105.62 18.15L105.62 18.15Q104.38 18.83 102.90 18.83L102.90 18.83L102.90 18.83Q102.23 18.83 101.60 18.72L101.60 18.72L101.60 18.72Q101.53 19.66 101.53 20.40L101.53 20.40L101.53 20.40Q101.53 20.66 101.61 20.90L101.61 20.90L101.61 20.90Q101.70 21.13 101.82 21.24L101.82 21.24L101.82 21.24Q101.39 21.63 100.77 21.63L100.77 21.63L100.77 21.63Q99.89 21.63 99.89 20.47L99.89 20.47L99.89 20.47Q99.89 19.92 100.28 17.37L100.28 17.37L100.28 17.37Q100.66 14.81 101.22 11.73L101.22 11.73L100.60 11.03L100.60 11.03Q100.94 10.77 101.39 10.60L101.39 10.60L101.39 10.60Q101.84 10.43 102.21 10.43L102.21 10.43L102.21 10.43Q102.61 10.43 102.77 10.61L102.77 10.61L102.77 10.61Q102.94 10.78 102.94 11.20L102.94 11.20L102.94 11.20Q102.94 11.55 102.70 12.64L102.70 12.64L102.80 12.71L102.80 12.71Q103.29 11.62 104.06 11.03L104.06 11.03L104.06 11.03Q104.83 10.43 105.71 10.43L105.71 10.43ZM101.67 18.06L101.67 18.06Q103.14 18.02 104.24 17.47L104.24 17.47L104.24 17.47Q105.35 16.91 105.95 15.96L105.95 15.96L105.95 15.96Q106.55 15.01 106.55 13.76L106.55 13.76L106.55 13.76Q106.55 12.81 106.16 12.28L106.16 12.28L106.16 12.28Q105.76 11.75 105.04 11.75L105.04 11.75L105.04 11.75Q102.94 11.75 101.74 17.50L101.74 17.50L101.67 18.06ZM112.95 9.24L112.95 9.24Q112.50 9.24 112.24 9.02L112.24 9.02L112.24 9.02Q111.97 8.81 111.97 8.44L111.97 8.44L111.97 8.44Q111.97 8.02 112.32 7.71L112.32 7.71L112.32 7.71Q112.67 7.39 113.22 7.39L113.22 7.39L113.22 7.39Q113.68 7.39 113.94 7.61L113.94 7.61L113.94 7.61Q114.20 7.83 114.20 8.18L114.20 8.18L114.20 8.18Q114.20 8.62 113.85 8.93L113.85 8.93L113.85 8.93Q113.50 9.24 112.95 9.24L112.95 9.24ZM111.71 19.18L111.71 19.18Q111.23 19.18 110.99 18.94L110.99 18.94L110.99 18.94Q110.75 18.70 110.75 18.19L110.75 18.19L110.75 18.19Q110.75 17.61 111.03 16.14L111.03 16.14L111.03 16.14Q111.30 14.67 111.96 11.72L111.96 11.72L111.34 11.02L111.34 11.02Q111.68 10.75 112.12 10.59L112.12 10.59L112.12 10.59Q112.56 10.43 112.92 10.43L112.92 10.43L112.92 10.43Q113.34 10.43 113.52 10.61L113.52 10.61L113.52 10.61Q113.69 10.78 113.69 11.20L113.69 11.20L113.69 11.20Q113.69 11.31 113.43 12.40L113.43 12.40L113.43 12.40Q112.99 14.18 112.71 15.62L112.71 15.62L112.71 15.62Q112.42 17.07 112.42 18.06L112.42 18.06L112.42 18.06Q112.42 18.59 112.67 18.80L112.67 18.80L112.67 18.80Q112.21 19.18 111.71 19.18L111.71 19.18ZM117.15 19.18L117.15 19.18Q116.66 19.18 116.43 18.94L116.43 18.94L116.43 18.94Q116.20 18.70 116.20 18.19L116.20 18.19L116.20 18.19Q116.20 17.57 116.57 15.65L116.57 15.65L116.57 15.65Q116.94 13.72 117.42 11.83L117.42 11.83L116.79 11.13L116.79 11.13Q117.12 10.84 117.58 10.65L117.58 10.65L117.58 10.65Q118.03 10.47 118.40 10.47L118.40 10.47L118.40 10.47Q118.82 10.47 118.99 10.64L118.99 10.64L118.99 10.64Q119.15 10.81 119.15 11.24L119.15 11.24L119.15 11.24Q119.15 11.61 119.04 12.07L119.04 12.07L119.04 12.07Q118.92 12.53 118.72 12.92L118.72 12.92L118.86 12.99L118.86 12.99Q120.27 10.43 122.53 10.43L122.53 10.43L122.53 10.43Q123.44 10.43 123.88 10.89L123.88 10.89L123.88 10.89Q124.32 11.34 124.32 12.29L124.32 12.29L124.32 12.29Q124.32 12.85 124.20 13.45L124.20 13.45L124.20 13.45Q124.08 14.06 123.86 14.97L123.86 14.97L123.86 14.97Q123.59 16.03 123.47 16.71L123.47 16.71L123.47 16.71Q123.34 17.39 123.34 18.06L123.34 18.06L123.34 18.06Q123.34 18.56 123.52 18.79L123.52 18.79L123.52 18.79Q123.10 19.18 122.63 19.18L122.63 19.18L122.63 19.18Q122.15 19.18 121.92 18.94L121.92 18.94L121.92 18.94Q121.69 18.70 121.69 18.19L121.69 18.19L121.69 18.19Q121.69 17.65 121.81 16.99L121.81 16.99L121.81 16.99Q121.93 16.32 122.15 15.26L122.15 15.26L122.15 15.26Q122.36 14.38 122.47 13.78L122.47 13.78L122.47 13.78Q122.57 13.19 122.57 12.75L122.57 12.75L122.57 12.75Q122.57 11.62 121.72 11.62L121.72 11.62L121.72 11.62Q120.72 11.62 119.83 12.57L119.83 12.57L119.83 12.57Q118.94 13.51 118.41 15.01L118.41 15.01L118.41 15.01Q117.87 16.51 117.87 18.06L117.87 18.06L117.87 18.06Q117.87 18.58 118.03 18.79L118.03 18.79L118.03 18.79Q117.61 19.18 117.15 19.18L117.15 19.18ZM133.41 10.74L133.41 10.74Q133.99 10.74 133.99 11.27L133.99 11.27L133.99 11.27Q133.99 14.28 133.35 16.72L133.35 16.72L133.35 16.72Q132.71 19.17 131.27 20.64L131.27 20.64L131.27 20.64Q129.84 22.12 127.57 22.12L127.57 22.12L127.57 22.12Q126.56 22.12 125.94 21.78L125.94 21.78L125.94 21.78Q125.31 21.43 125.31 20.90L125.31 20.90L125.31 20.90Q125.31 20.62 125.50 20.32L125.50 20.32L125.50 20.32Q125.68 20.02 125.97 19.81L125.97 19.81L125.97 19.81Q126.29 20.37 126.76 20.64L126.76 20.64L126.76 20.64Q127.23 20.92 127.90 20.92L127.90 20.92L127.90 20.92Q128.60 20.92 129.37 20.52L129.37 20.52L129.37 20.52Q130.13 20.12 130.83 19.19L130.83 19.19L130.83 19.19Q131.53 18.26 131.96 16.77L131.96 16.77L131.67 16.77L131.67 16.77Q131.18 17.71 130.34 18.24L130.34 18.24L130.34 18.24Q129.50 18.77 128.60 18.77L128.60 18.77L128.60 18.77Q127.83 18.77 127.24 18.38L127.24 18.38L127.24 18.38Q126.64 17.98 126.32 17.24L126.32 17.24L126.32 17.24Q125.99 16.51 125.99 15.54L125.99 15.54L125.99 15.54Q125.99 14.10 126.62 12.94L126.62 12.94L126.62 12.94Q127.26 11.77 128.46 11.10L128.46 11.10L128.46 11.10Q129.65 10.43 131.26 10.43L131.26 10.43L131.26 10.43Q131.99 10.43 132.58 10.54L132.58 10.54L132.58 10.54Q132.72 10.77 132.73 11.02L132.73 11.02L132.73 11.02Q132.94 10.85 133.09 10.79L133.09 10.79L133.09 10.79Q133.24 10.74 133.41 10.74L133.41 10.74ZM132.50 11.20L132.52 12.94L132.54 12.24L132.54 12.24Q132.54 11.93 132.51 11.20L132.51 11.20L132.50 11.20ZM129.28 17.60L129.28 17.60Q129.95 17.60 130.69 17.02L130.69 17.02L130.69 17.02Q131.43 16.44 131.96 15.00L131.96 15.00L131.96 15.00Q132.50 13.57 132.50 11.20L132.50 11.20L132.50 11.20Q131.04 11.24 129.96 11.80L129.96 11.80L129.96 11.80Q128.87 12.35 128.29 13.29L128.29 13.29L128.29 13.29Q127.71 14.24 127.71 15.44L127.71 15.44L127.71 15.44Q127.71 16.46 128.12 17.03L128.12 17.03L128.12 17.03Q128.53 17.60 129.28 17.60L129.28 17.60Z"></path></g><defs data-v-fde0c5aa=""><!----></defs><g data-v-fde0c5aa="" id="60af7b17-7944-47a3-aa2d-ff2f6611ce3a" stroke="none" fill="#131619" transform="matrix(0.5781693283683893,0,0,0.5781693283683893,121.09153316804161,97.63731934346919)"><path d="M55.527 18.283a9.187 9.187 0 0 0 10.448-7.738C66.722 5.522 63.26.848 58.223.101c-5.02-.747-9.697 2.724-10.439 7.739-.747 5.026 2.724 9.697 7.743 10.443zM64.818 54.233c.055-.354.118-.702.118-1.068l.191-19.526 6.883 4.714 4.499 12.88c-.1.126-.245.201-.337.335a5.37 5.37 0 0 0-.814 4.052l.141.717-5.11 1.007 5.384 31.907 23.073-4.536-7.838-31.425-4.915.964-.141-.716c-.383-1.96-1.845-3.484-3.662-4.076l-3.175-14.563a3.858 3.858 0 0 0-1.548-2.163L61.849 21.973c-.031-.023-.059-.041-.091-.062l-.296-.203-.019.025c-1.166-.71-2.51-1.15-3.972-1.166-2.223-.057-4.268.922-5.721 2.478l-.014-.012-.159.221c-.314.36-.597.747-.838 1.161l-9.392 12.981L25.1 42.34l.264 1.059c-2.387.556-4.204 2.603-4.204 5.158v.729h-5.215l-1.248 34.271h23.52l-1.252-34.271h-5.01v-.729c0-.48-.155-.913-.273-1.357l12.932-2.6a3.907 3.907 0 0 0 2.209-1.496l2.692-3.726-.128 13.637c-.004.234.041.455.06.684l-7.356 19.336a4.8 4.8 0 0 0-.319 1.597l.474 25.183 7.387.185 1.831-24.278 4.787-12.575 1.745 12.479c.068.46.195.904.382 1.328l11.573 22.324 6.377-2.876-8.8-22.813-2.71-19.356zm19.084.454l-6.208 1.221-.141-.718a3.11 3.11 0 0 1 .428-2.252l4.085-1.144c.843.431 1.499 1.195 1.694 2.178l.142.715zm-54.181-6.129v.729h-6.327v-.729c0-1.515 1.089-2.722 2.505-3.034l.684 2.706 2.951-.597c.091.299.187.597.187.925z"></path><path d="M19.833 46.048l-5.038-3.188L1.154 63.046l11.892 7.42.856-23.304H19.5z"></path></g><!----></svg>