<svg data-v-423bf9ae="" xmlns="http://www.w3.org/2000/svg" viewBox="0 0 290 90" class="iconLeft"><!----><!----><!----><g data-v-423bf9ae="" id="0ba506eb-819c-4e58-b54b-830f7b3a098a" fill="white" transform="matrix(3.4285714285714284,0,0,3.4285714285714284,104.36997205018997,-2.657142707279746)"><path d="M6.10 7.92L6.10 7.92Q6.94 7.92 7.48 8.29L7.48 8.29L7.48 8.29Q8.01 8.65 8.01 9.24L8.01 9.24L8.01 9.24Q8.01 9.81 7.55 10.39L7.55 10.39L7.55 10.39Q7.10 10.96 6.38 11.35L6.38 11.35L6.38 11.35Q5.66 11.75 4.90 11.80L4.90 11.80L4.76 11.54L4.76 11.54Q5.50 11.35 6.02 10.82L6.02 10.82L6.02 10.82Q6.54 10.28 6.54 9.70L6.54 9.70L6.54 9.70Q6.54 9.24 6.22 8.97L6.22 8.97L6.22 8.97Q5.89 8.69 5.36 8.69L5.36 8.69L5.36 8.69Q4.41 8.69 3.65 9.32L3.65 9.32L3.65 9.32Q2.90 9.94 2.47 11.03L2.47 11.03L2.47 11.03Q2.04 12.12 2.04 13.50L2.04 13.50L2.04 13.50Q2.04 15.18 2.60 16.13L2.60 16.13L2.60 16.13Q3.16 17.08 4.28 17.08L4.28 17.08L4.28 17.08Q4.93 17.08 5.52 16.62L5.52 16.62L5.52 16.62Q6.12 16.16 6.50 15.42L6.50 15.42L6.50 15.42Q6.87 14.69 6.89 13.90L6.89 13.90L8.22 13.44L8.22 19.08L6.99 19.59L6.99 15.30L6.90 15.30L6.90 15.30Q6.69 16.18 6.21 16.84L6.21 16.84L6.21 16.84Q5.73 17.50 5.08 17.85L5.08 17.85L5.08 17.85Q4.42 18.20 3.72 18.20L3.72 18.20L3.72 18.20Q2.77 18.20 2.06 17.75L2.06 17.75L2.06 17.75Q1.34 17.29 0.96 16.45L0.96 16.45L0.96 16.45Q0.57 15.61 0.57 14.49L0.57 14.49L0.57 14.49Q0.57 12.66 1.30 11.15L1.30 11.15L1.30 11.15Q2.03 9.65 3.30 8.79L3.30 8.79L3.30 8.79Q4.56 7.92 6.10 7.92L6.10 7.92ZM13.02 10.96L13.27 11.26L13.27 11.26Q12.22 11.93 11.62 12.75L11.62 12.75L11.62 12.75Q11.02 13.58 11.02 14.70L11.02 14.70L11.02 14.70Q11.02 15.33 11.28 15.97L11.28 15.97L11.28 15.97Q11.55 16.60 12.08 17.02L12.08 17.02L12.08 17.02Q12.61 17.44 13.36 17.44L13.36 17.44L13.36 17.44Q13.96 17.44 14.43 17.16L14.43 17.16L14.43 17.16Q14.90 16.88 15.16 16.41L15.16 16.41L15.16 16.41Q15.41 15.93 15.41 15.36L15.41 15.36L15.41 15.36Q15.41 14.70 15.02 14.01L15.02 14.01L15.02 14.01Q14.62 13.33 13.97 12.85L13.97 12.85L13.97 12.85Q13.33 12.38 12.66 12.32L12.66 12.32L12.66 12.32Q12.94 12.04 13.33 11.73L13.33 11.73L13.33 11.73Q13.72 11.42 14.13 11.13L14.13 11.13L14.13 11.13Q15.09 11.45 15.65 12.36L15.65 12.36L15.65 12.36Q16.21 13.26 16.21 14.36L16.21 14.36L16.21 14.36Q16.21 15.34 15.81 16.25L15.81 16.25L15.81 16.25Q15.41 17.15 14.64 17.72L14.64 17.72L14.64 17.72Q13.87 18.28 12.82 18.28L12.82 18.28L12.82 18.28Q11.98 18.28 11.28 17.87L11.28 17.87L11.28 17.87Q10.57 17.46 10.16 16.74L10.16 16.74L10.16 16.74Q9.76 16.03 9.76 15.16L9.76 15.16L9.76 15.16Q9.76 13.64 10.66 12.52L10.66 12.52L10.66 12.52Q11.56 11.40 13.02 10.96L13.02 10.96ZM18.10 12.25L17.65 13.44L22.40 13.44L22.82 12.25L18.10 12.25ZM27.66 7.90L27.66 7.90Q28.60 7.90 29.44 8.32L29.44 8.32L29.44 8.32Q30.28 8.75 30.86 9.53L30.86 9.53L29.76 10.88L29.76 10.88Q29.41 9.90 28.72 9.25L28.72 9.25L28.72 9.25Q28.03 8.61 27.08 8.61L27.08 8.61L27.08 8.61Q26.17 8.61 25.66 9.13L25.66 9.13L25.66 9.13Q25.16 9.65 25.16 10.46L25.16 10.46L25.16 10.46Q25.16 11.21 25.52 11.72L25.52 11.72L25.52 11.72Q25.89 12.22 26.40 12.53L26.40 12.53L26.40 12.53Q26.92 12.84 27.80 13.23L27.80 13.23L27.80 13.23Q28.64 13.61 29.13 13.89L29.13 13.89L29.13 13.89Q29.61 14.17 29.95 14.62L29.95 14.62L29.95 14.62Q30.28 15.06 30.28 15.72L30.28 15.72L30.28 15.72Q30.30 16.94 29.50 17.60L29.50 17.60L29.50 17.60Q28.70 18.26 27.43 18.26L27.43 18.26L27.43 18.26Q26.49 18.26 25.64 17.89L25.64 17.89L25.64 17.89Q24.79 17.51 24.29 16.76L24.29 16.76L25.38 15.54L25.38 15.54Q25.86 16.66 26.54 17.13L26.54 17.13L26.54 17.13Q27.23 17.60 27.87 17.60L27.87 17.60L27.87 17.60Q28.48 17.60 28.90 17.27L28.90 17.27L28.90 17.27Q29.33 16.94 29.33 16.41L29.33 16.41L29.33 16.41Q29.33 15.92 29.03 15.55L29.03 15.55L29.03 15.55Q28.73 15.18 28.28 14.92L28.28 14.92L28.28 14.92Q27.83 14.66 27.06 14.31L27.06 14.31L27.06 14.31Q26.08 13.86 25.49 13.50L25.49 13.50L25.49 13.50Q24.91 13.13 24.49 12.54L24.49 12.54L24.49 12.54Q24.07 11.94 24.07 11.09L24.07 11.09L24.07 11.09Q24.07 10.19 24.54 9.46L24.54 9.46L24.54 9.46Q25.00 8.72 25.83 8.31L25.83 8.31L25.83 8.31Q26.66 7.90 27.66 7.90L27.66 7.90ZM33.49 5.15L33.49 15.11L33.54 15.11L33.54 15.11Q33.68 14.34 34.04 13.38L34.04 13.38L34.04 13.38Q34.40 12.42 35 11.69L35 11.69L35 11.69Q35.60 10.96 36.41 10.96L36.41 10.96L36.41 10.96Q36.85 10.96 37.05 11.28L37.05 11.28L37.05 11.28Q37.25 11.59 37.29 11.98L37.29 11.98L37.29 11.98Q37.32 12.38 37.32 13.02L37.32 13.02L37.32 16.91L37.32 16.91Q37.32 17.08 37.43 17.23L37.43 17.23L37.43 17.23Q37.53 17.39 37.76 17.39L37.76 17.39L37.76 17.39Q38.12 17.39 38.50 16.84L38.50 16.84L38.67 17.05L38.67 17.05Q38.47 17.51 38.05 17.84L38.05 17.84L38.05 17.84Q37.62 18.16 37.18 18.16L37.18 18.16L37.18 18.16Q36.09 18.16 36.09 16.74L36.09 16.74L36.09 13.03L36.09 13.03Q36.09 12.85 36.02 12.70L36.02 12.70L36.02 12.70Q35.94 12.54 35.76 12.54L35.76 12.54L35.76 12.54Q35.04 12.54 34.52 13.66L34.52 13.66L34.52 13.66Q34.01 14.77 33.73 16.11L33.73 16.11L33.73 16.11Q33.45 17.44 33.45 17.92L33.45 17.92L32.20 18.28L32.20 5.68L33.49 5.15ZM42.81 10.96L43.06 11.26L43.06 11.26Q42.01 11.93 41.41 12.75L41.41 12.75L41.41 12.75Q40.81 13.58 40.81 14.70L40.81 14.70L40.81 14.70Q40.81 15.33 41.08 15.97L41.08 15.97L41.08 15.97Q41.34 16.60 41.87 17.02L41.87 17.02L41.87 17.02Q42.41 17.44 43.15 17.44L43.15 17.44L43.15 17.44Q43.75 17.44 44.22 17.16L44.22 17.16L44.22 17.16Q44.69 16.88 44.95 16.41L44.95 16.41L44.95 16.41Q45.21 15.93 45.21 15.36L45.21 15.36L45.21 15.36Q45.21 14.70 44.81 14.01L44.81 14.01L44.81 14.01Q44.41 13.33 43.76 12.85L43.76 12.85L43.76 12.85Q43.12 12.38 42.45 12.32L42.45 12.32L42.45 12.32Q42.73 12.04 43.12 11.73L43.12 11.73L43.12 11.73Q43.51 11.42 43.92 11.13L43.92 11.13L43.92 11.13Q44.88 11.45 45.44 12.36L45.44 12.36L45.44 12.36Q46.00 13.26 46.00 14.36L46.00 14.36L46.00 14.36Q46.00 15.34 45.61 16.25L45.61 16.25L45.61 16.25Q45.21 17.15 44.44 17.72L44.44 17.72L44.44 17.72Q43.67 18.28 42.62 18.28L42.62 18.28L42.62 18.28Q41.78 18.28 41.07 17.87L41.07 17.87L41.07 17.87Q40.36 17.46 39.96 16.74L39.96 16.74L39.96 16.74Q39.55 16.03 39.55 15.16L39.55 15.16L39.55 15.16Q39.55 13.64 40.45 12.52L40.45 12.52L40.45 12.52Q41.36 11.40 42.81 10.96L42.81 10.96ZM51.41 11.02L51.41 11.02Q52.15 11.02 52.78 11.45L52.78 11.45L52.78 11.45Q53.41 11.87 53.77 12.61L53.77 12.61L53.77 12.61Q54.14 13.34 54.14 14.21L54.14 14.21L54.14 14.21Q54.14 15.44 53.80 16.35L53.80 16.35L53.80 16.35Q53.45 17.25 52.81 17.74L52.81 17.74L52.81 17.74Q52.16 18.23 51.30 18.23L51.30 18.23L51.30 18.23Q51.09 18.23 50.88 18.17L50.88 18.17L50.88 18.17Q50.68 18.10 50.37 17.95L50.37 17.95L50.74 17.15L50.74 17.15Q51.09 17.37 51.74 17.37L51.74 17.37L51.74 17.37Q52.33 17.37 52.70 16.60L52.70 16.60L52.70 16.60Q53.07 15.82 53.07 14.60L53.07 14.60L53.07 14.60Q53.07 13.90 52.79 13.32L52.79 13.32L52.79 13.32Q52.51 12.74 52.02 12.41L52.02 12.41L52.02 12.41Q51.53 12.08 50.93 12.08L50.93 12.08L50.93 12.08Q50.20 12.08 49.81 12.87L49.81 12.87L49.81 12.87Q49.42 13.65 49.42 15.09L49.42 15.09L49.42 22.13L48.20 22.65L48.20 12.33L48.20 12.33Q48.20 12.08 48.09 11.93L48.09 11.93L48.09 11.93Q47.98 11.77 47.80 11.77L47.80 11.77L47.80 11.77Q47.66 11.77 47.49 11.91L47.49 11.91L47.49 11.91Q47.32 12.05 47.07 12.36L47.07 12.36L46.86 12.15L46.86 12.15Q47.03 11.68 47.45 11.35L47.45 11.35L47.45 11.35Q47.87 11.02 48.29 11.02L48.29 11.02L48.29 11.02Q48.92 11.02 49.20 11.39L49.20 11.39L49.20 11.39Q49.48 11.76 49.48 12.59L49.48 12.59L49.53 12.59L49.53 12.59Q49.85 11.89 50.37 11.45L50.37 11.45L50.37 11.45Q50.88 11.02 51.41 11.02L51.41 11.02Z"></path></g><!----><g data-v-423bf9ae="" id="f67233b8-1dc5-4ce4-b193-67f0738cf231" transform="matrix(1.113861449243231,0,0,1.113861449243231,-12.448765447754319,-10.093069956169714)" stroke="none" fill="white"><path d="M81.9 47.2V22.9H32.3V9.6h-21V17h13.6v47.1h63.6v-7.4H32.3v-9.6h49.6zM32.3 29.1h42.9v12H32.3v-12zM35.9 68c-6.2 0-11.2 5-11.2 11.2 0 6.2 5 11.2 11.2 11.2s11.2-5 11.2-11.2c0-6.2-5-11.2-11.2-11.2zm0 14.5c-1.8 0-3.3-1.5-3.3-3.3 0-1.8 1.5-3.3 3.3-3.3s3.3 1.5 3.3 3.3c0 1.8-1.5 3.3-3.3 3.3zM77.6 68c-6.2 0-11.2 5-11.2 11.2 0 6.2 5 11.2 11.2 11.2 6.2 0 11.2-5 11.2-11.2 0-6.2-5-11.2-11.2-11.2zm0 14.5c-1.8 0-3.3-1.5-3.3-3.3 0-1.8 1.5-3.3 3.3-3.3 1.8 0 3.3 1.5 3.3 3.3 0 1.8-1.5 3.3-3.3 3.3z"></path></g><!----></svg>